<svg width="121" height="23" viewBox="0 0 121 23" fill="none" xmlns="http://www.w3.org/2000/svg">
<path d="M8.38088 22.8497C6.33205 22.8497 4.58751 22.3831 3.14724 21.45C1.72726 20.5169 0.733275 19.2389 0.165283 17.616L3.17767 15.8512C4.02966 18.2449 5.79449 19.4417 8.47217 19.4417C9.79072 19.4417 10.7746 19.1882 11.4237 18.681C12.0931 18.1536 12.4278 17.474 12.4278 16.6423C12.4278 15.7701 12.0728 15.1108 11.3628 14.6645C10.6528 14.1979 9.39515 13.6908 7.58975 13.1431C6.57548 12.8388 5.75392 12.5548 5.12507 12.2911C4.49622 12.0274 3.8268 11.6623 3.11681 11.1957C2.42711 10.7089 1.90983 10.1104 1.56498 9.40045C1.22013 8.69046 1.0477 7.85875 1.0477 6.90534C1.0477 5.01879 1.71712 3.52782 3.05596 2.4324C4.39479 1.3167 6.00748 0.758854 7.89403 0.758854C9.59801 0.758854 11.089 1.17471 12.367 2.00641C13.6449 2.83811 14.6288 3.98424 15.3185 5.44479L12.367 7.14876C11.4744 5.16079 9.98343 4.16681 7.89403 4.16681C6.87976 4.16681 6.06834 4.41023 5.45978 4.89708C4.85122 5.36365 4.54694 6.00264 4.54694 6.81405C4.54694 7.60519 4.85122 8.23403 5.45978 8.7006C6.08863 9.14688 7.21447 9.62359 8.8373 10.1307C9.64872 10.3944 10.237 10.5973 10.6021 10.7393C10.9876 10.861 11.515 11.0639 12.1844 11.3478C12.8741 11.6318 13.3914 11.9158 13.7362 12.1998C14.0811 12.4838 14.4462 12.8388 14.8316 13.2648C15.2374 13.6908 15.5213 14.1777 15.6836 14.7254C15.8459 15.2731 15.9271 15.8918 15.9271 16.5815C15.9271 18.5086 15.2272 20.0402 13.8275 21.1761C12.4481 22.2918 10.6326 22.8497 8.38088 22.8497Z" fill="#C3D5FD"/>
<path d="M26.7725 10.4046H22.9995V17.7073C22.9995 18.3362 23.1415 18.7926 23.4255 19.0766C23.7094 19.3403 24.1253 19.4924 24.673 19.533C25.241 19.5533 25.9408 19.5432 26.7725 19.5026V22.4541C24.2572 22.7584 22.4518 22.5454 21.3563 21.8151C20.2609 21.0646 19.7132 19.6953 19.7132 17.7073V10.4046H16.9138V7.24005H19.7132V3.95381L22.9995 2.98011V7.24005H26.7725V10.4046Z" fill="#C3D5FD"/>
<path d="M41.1786 7.24005H44.4648V22.4541H41.1786V20.2633C39.9412 21.9876 38.1662 22.8497 35.8537 22.8497C33.7643 22.8497 31.9792 22.0788 30.4983 20.5371C29.0175 18.9752 28.2771 17.0785 28.2771 14.8471C28.2771 12.5954 29.0175 10.6987 30.4983 9.15702C31.9792 7.61533 33.7643 6.84448 35.8537 6.84448C38.1662 6.84448 39.9412 7.69647 41.1786 9.40045V7.24005ZM32.9326 18.3463C33.8454 19.2592 34.9916 19.7156 36.371 19.7156C37.7504 19.7156 38.8965 19.2592 39.8093 18.3463C40.7222 17.4132 41.1786 16.2468 41.1786 14.8471C41.1786 13.4474 40.7222 12.2911 39.8093 11.3783C38.8965 10.4451 37.7504 9.97858 36.371 9.97858C34.9916 9.97858 33.8454 10.4451 32.9326 11.3783C32.0197 12.2911 31.5633 13.4474 31.5633 14.8471C31.5633 16.2468 32.0197 17.4132 32.9326 18.3463Z" fill="#C3D5FD"/>
<path d="M51.5815 9.79601C52.4132 7.90947 53.9751 6.9662 56.2674 6.9662V10.5263C55.0097 10.4451 53.9143 10.7494 52.9812 11.4391C52.048 12.1085 51.5815 13.2242 51.5815 14.7862V22.4541H48.2952V7.24005H51.5815V9.79601Z" fill="#C3D5FD"/>
<path d="M67.5712 10.4046H63.7981V17.7073C63.7981 18.3362 63.9401 18.7926 64.2241 19.0766C64.5081 19.3403 64.924 19.4924 65.4717 19.533C66.0397 19.5533 66.7395 19.5432 67.5712 19.5026V22.4541C65.0558 22.7584 63.2504 22.5454 62.155 21.8151C61.0596 21.0646 60.5119 19.6953 60.5119 17.7073V10.4046H57.7125V7.24005H60.5119V3.95381L63.7981 2.98011V7.24005H67.5712V10.4046Z" fill="#C3D5FD"/>
<path d="M81.2589 11.4391C81.2589 11.9463 81.5327 12.352 82.0804 12.6563C82.6484 12.9403 83.328 13.1938 84.1191 13.417C84.9305 13.6198 85.742 13.8632 86.5534 14.1472C87.3648 14.4312 88.0443 14.9181 88.5921 15.6078C89.16 16.2772 89.444 17.1292 89.444 18.1637C89.444 19.6243 88.8761 20.7704 87.7401 21.6021C86.6244 22.4338 85.2145 22.8497 83.5106 22.8497C82.0094 22.8497 80.7213 22.5353 79.6462 21.9064C78.5711 21.2776 77.7901 20.4053 77.3032 19.2896L80.133 17.6465C80.6605 19.107 81.7863 19.8373 83.5106 19.8373C85.2348 19.8373 86.097 19.2693 86.097 18.1333C86.097 17.6465 85.813 17.2509 85.245 16.9466C84.6973 16.6423 84.0177 16.3888 83.2063 16.1859C82.4152 15.9628 81.6139 15.7092 80.8025 15.4252C79.991 15.1412 79.3013 14.6747 78.7333 14.0255C78.1856 13.3561 77.9118 12.5143 77.9118 11.5C77.9118 10.1003 78.4392 8.97445 79.494 8.12246C80.5692 7.27048 81.8979 6.84448 83.4801 6.84448C84.7378 6.84448 85.8535 7.12848 86.8272 7.69647C87.8212 8.24418 88.5819 9.01502 89.1093 10.009L86.3404 11.5608C85.813 10.4046 84.8595 9.82644 83.4801 9.82644C82.8513 9.82644 82.3239 9.96844 81.8979 10.2524C81.4719 10.5161 81.2589 10.9117 81.2589 11.4391Z" fill="#C3D5FD"/>
<path d="M94.5329 16.2468C94.7763 17.403 95.3342 18.2956 96.2065 18.9245C97.0787 19.533 98.1437 19.8373 99.4014 19.8373C101.146 19.8373 102.454 19.2084 103.327 17.9508L106.035 19.533C104.534 21.7441 102.312 22.8497 99.371 22.8497C96.8962 22.8497 94.8981 22.0991 93.3766 20.598C91.8552 19.0766 91.0945 17.1596 91.0945 14.8471C91.0945 12.5751 91.8451 10.6784 93.3462 9.15702C94.8473 7.61533 96.7745 6.84448 99.1276 6.84448C101.359 6.84448 103.185 7.62547 104.605 9.18745C106.045 10.7494 106.765 12.6461 106.765 14.8775C106.765 15.2224 106.724 15.6788 106.643 16.2468H94.5329ZM94.5025 13.5691H103.448C103.225 12.3317 102.708 11.3986 101.897 10.7697C101.105 10.1409 100.172 9.82644 99.0971 9.82644C97.88 9.82644 96.8657 10.1611 96.0543 10.8306C95.2429 11.5 94.7256 12.4128 94.5025 13.5691Z" fill="#C3D5FD"/>
<path d="M109.657 22.4541V0.241577H112.943V22.4541H109.657Z" fill="#C3D5FD"/>
<path d="M116.759 22.4541V0.241577H120.045V22.4541H116.759Z" fill="#C3D5FD"/>
</svg>
